<svg xmlns="http://www.w3.org/2000/svg" xmlns:xlink="http://www.w3.org/1999/xlink" width="1920" height="1080" viewBox="0 0 1920 1080"><defs><clipPath id="a"><path d="M197.61,0h1920V1080h-1920Z" transform="translate(-1451.39 798) rotate(180)" fill="#e26b00" opacity="0.41"/></clipPath><clipPath id="b"><path d="M479.6,656.525l-101.8-58.75a8.6,8.6,0,0,0-12.9,7.45l-23.363,31.482L0,833.795,157.8,935.24l339-199.78V686.326a34.415,34.415,0,0,0-17.2-29.8Z" transform="translate(0 -596.624)" fill="none"/></clipPath><linearGradient id="c" x1="14.581" y1="0.079" x2="14.581" y2="1" gradientUnits="objectBoundingBox"><stop offset="0" stop-color="#fff" stop-opacity="0"/><stop offset="0.07" stop-color="#fff" stop-opacity="0.051"/><stop offset="0.19" stop-color="#fff" stop-opacity="0.169"/><stop offset="0.35" stop-color="#fff" stop-opacity="0.369"/><stop offset="0.55" stop-color="#fff" stop-opacity="0.639"/><stop offset="0.77" stop-color="#fff" stop-opacity="0.988"/><stop offset="0.77" stop-color="#fff"/></linearGradient></defs><g transform="translate(3569 282)" clip-path="url(#a)"><g opacity="0.7"><g transform="translate(-3173.708 103.013)"><path d="M709.05,680.7l.485.276,81.009-46.642a25.086,25.086,0,0,1,25.035,0l85.934,52.562a25.086,25.086,0,0,0,25,0l433.4-251.213" transform="translate(-709.05 -261.88)" fill="none" stroke="#fff" stroke-miterlimit="10" stroke-width="3.16"/><path d="M906.61,518.609l316.912-189.194a12.041,12.041,0,0,0,5.92-10.377V301.83" transform="translate(-741.414 -239.953)" fill="none" stroke="#fff" stroke-linecap="round" stroke-linejoin="round" stroke-width="3.95"/><path d="M887.662,485.9l319.847-190.649a6.146,6.146,0,0,0,0-10.611l-92.64-53.515a24.558,24.558,0,0,0-24.759.109L791,409.557" transform="translate(-722.475 -227.83)" fill="none" stroke="#fff" stroke-linecap="round" stroke-linejoin="round" stroke-width="3.95"/><path d="M1047.9,204.49l76.536,44.192m-163.69,7.952,76.536,44.192m-163.69,7.952L950.13,352.97m-163.69,7.952,76.535,44.192" transform="translate(-678.088 -180.492)" fill="#ef544e" stroke="#fff" stroke-linecap="round" stroke-linejoin="round" stroke-width="2.15" opacity="0.6"/><path d="M1090.226,249.605l17.844-10.293-17.844-10.3-17.836,10.3,17.836,10.293Z" transform="translate(-724.933 -184.509)" fill="none" stroke="#fff" stroke-linecap="round" stroke-linejoin="round" stroke-width="2.63"/><path d="M1072.71,251.623l-17.836-10.293v21.757l17.836,10.3Zm0,0,17.844-10.293v21.757l-17.844,10.3Zm-89.4,52.646,17.836-10.3-17.836-10.293L965.47,293.967Z" transform="translate(-707.417 -186.527)" fill="none" stroke="#fff" stroke-linecap="round" stroke-linejoin="round" stroke-width="2.63"/><path d="M965.788,314.582l-17.836-10.3v21.766l17.836,10.3Zm0,0,17.836-10.3v21.766l-17.836,10.3Zm-89.4,52.646,17.836-10.3-17.836-10.293L858.54,356.926Z" transform="translate(-689.899 -196.84)" fill="none" stroke="#fff" stroke-linecap="round" stroke-linejoin="round" stroke-width="2.63"/><path d="M876.384,377.542l-17.844-10.3v21.766l17.844,10.3Zm0,0,17.836-10.3v21.766l-17.836,10.3Z" transform="translate(-689.899 -207.154)" fill="none" stroke="#fff" stroke-linecap="round" stroke-linejoin="round" stroke-width="2.63"/></g><path d="M368.143,445.359,70.079,267.252a12.049,12.049,0,0,1-5.929-10.377V239.633l108.126-45.1" transform="translate(-3777.109 -119.362)" fill="none" stroke="#fff" stroke-linecap="round" stroke-linejoin="round" stroke-width="3.95"/><path d="M385.652,431.96,67.177,241.871a6.138,6.138,0,0,1,.05-10.611l92.64-53.515a24.559,24.559,0,0,1,24.759.109L499.958,366.127" transform="translate(-3777.109 -116.072)" fill="none" stroke="#fff" stroke-linecap="round" stroke-linejoin="round" stroke-width="3.95"/><path d="M158.975,165.18,82.44,209.364m163.69,7.96-76.535,44.184m163.69,7.96L256.75,313.652m163.69,7.96L343.9,365.8" transform="translate(-3736.465 -71.039)" fill="#ef544e" stroke="#fff" stroke-linecap="round" stroke-linejoin="round" stroke-width="2.15" opacity="0.6"/><path d="M165.346,205.025l-17.836-10.3,17.836-10.293,17.836,10.293Zm0,0,17.836-10.3v21.766l-17.836,10.3Z" transform="translate(-3747.125 -74.192)" fill="none" stroke="#fff" stroke-linecap="round" stroke-linejoin="round" stroke-width="2.63"/><path d="M165.346,207.042l-17.836-10.3v21.766l17.836,10.3Zm89.4,52.646-17.836-10.3,17.836-10.3,17.844,10.3Z" transform="translate(-3747.125 -76.209)" fill="none" stroke="#fff" stroke-linecap="round" stroke-linejoin="round" stroke-width="2.63"/><path d="M272.266,270l17.844-10.3v21.766l-17.844,10.3Zm0,0L254.43,259.7v21.766l17.836,10.3Zm89.413,52.646-17.844-10.3,17.844-10.3,17.836,10.3Z" transform="translate(-3764.641 -86.523)" fill="none" stroke="#fff" stroke-linecap="round" stroke-linejoin="round" stroke-width="2.63"/><path d="M379.194,332.962l17.836-10.3v21.766l-17.836,10.293Zm0,0-17.844-10.3v21.766l17.844,10.293Z" transform="translate(-3782.156 -96.837)" fill="none" stroke="#fff" stroke-linecap="round" stroke-linejoin="round" stroke-width="2.63"/><path d="M314,1059.406a1.329,1.329,0,0,0,.677-.184L773.238,788.275a9.925,9.925,0,0,0,0-17.183L664.25,708.185a1.322,1.322,0,0,0-1.321,2.291" transform="translate(-3818.04 -203.48)" fill="none" stroke="#fff" stroke-miterlimit="10" stroke-width="3.16"/><path d="M561.23,708.694l24.943,14.4a48.373,48.373,0,0,0,48.406,0L817.16,617.685a12.008,12.008,0,0,0,6.045-10.486V518.84m-425.665,0v88.367a11.974,11.974,0,0,0,6.054,10.477l23.463,13.546" transform="translate(-3831.725 -172.49)" fill="none" stroke="#fff" stroke-linecap="round" stroke-linejoin="round" stroke-width="4"/><path d="M634.563,612.18l182.6-105.409a12.108,12.108,0,0,0,0-20.963L634.563,380.4a48.414,48.414,0,0,0-48.406,0L403.594,485.808a12.1,12.1,0,0,0,0,20.963L586.173,612.18A48.415,48.415,0,0,0,634.563,612.18Z" transform="translate(-3831.725 -148.749)" fill="none" stroke="#fff" stroke-linecap="round" stroke-linejoin="round" stroke-width="4"/><g transform="translate(-3766.6 411.391)" clip-path="url(#b)"><path d="M2,820.987,116.172,886.9,453.495,687.808V667.18" transform="translate(43.313 -564.668)" fill="none" stroke="#fff" stroke-linecap="round" stroke-linejoin="round" stroke-width="4"/><path d="M116.172,846.689l396.3-233.143L398.3,547.63,2,780.773Z" transform="translate(43.313 -545.083)" fill="none" stroke="#fff" stroke-linecap="round" stroke-linejoin="round" stroke-width="4"/></g><path d="M370.875,603.08l76.535,44.192m-163.69,7.952,76.535,44.192m-163.69,7.952L273.1,751.56m-163.69,7.96L185.945,803.7" transform="translate(-3740.884 -142.776)" fill="#ef544e" stroke="#fff" stroke-linecap="round" stroke-linejoin="round" stroke-width="2.15" opacity="0.6"/><path d="M421.1,642.933l17.836-10.3L421.1,622.33l-17.844,10.3Z" transform="translate(-3789.022 -145.929)" fill="none" stroke="#fff" stroke-linecap="round" stroke-linejoin="round" stroke-width="2.63"/><path d="M403.588,644.952l-17.844-10.3v21.766l17.844,10.293Zm0,0,17.836-10.3v21.766l-17.836,10.293Zm-89.413,52.637L332.011,687.3l-17.836-10.3L296.34,687.3Z" transform="translate(-3771.507 -147.948)" fill="none" stroke="#fff" stroke-linecap="round" stroke-linejoin="round" stroke-width="2.63"/><path d="M296.658,707.9,278.823,697.61v21.757l17.836,10.3Zm0,0,17.836-10.293v21.757l-17.836,10.3Zm-89.4,52.646,17.836-10.293-17.836-10.3-17.844,10.3Z" transform="translate(-3753.989 -158.262)" fill="none" stroke="#fff" stroke-linecap="round" stroke-linejoin="round" stroke-width="2.63"/><path d="M207.254,770.863,189.41,760.57v21.757l17.844,10.3Zm0,0L225.09,760.57v21.757l-17.836,10.3Z" transform="translate(-3753.989 -168.576)" fill="none" stroke="#fff" stroke-linecap="round" stroke-linejoin="round" stroke-width="2.63"/><path d="M857.418,644,691.11,708.829V738.1l55.723,32.7a24.558,24.558,0,0,0,24.567,0L916.235,689.12a6.062,6.062,0,0,0,3.069-5.159V655.255" transform="translate(-3879.818 -192.994)" fill="#ef544e" stroke="#fff" stroke-linecap="round" stroke-linejoin="round" stroke-width="3.95"/><path d="M771.4,735.8l144.835-81.644a6.138,6.138,0,0,0,0-10.636L857.418,609,691.11,703.1l55.723,32.7A24.558,24.558,0,0,0,771.4,735.8Z" transform="translate(-3879.818 -187.261)" fill="#ef544e" stroke="#fff" stroke-linecap="round" stroke-linejoin="round" stroke-width="3.95"/><path d="M770.3,731.058l137.133-77.765a2.626,2.626,0,0,0,0-4.549l-39.618-22.87a10.519,10.519,0,0,0-10.5,0L720.183,703.64a2.625,2.625,0,0,0,0,4.549l39.627,22.878a10.519,10.519,0,0,0,10.494-.008Z" transform="translate(-3884.366 -189.795)" fill="#ef544e"/><g transform="translate(-3315.808 203.045)" opacity="0.4"><path d="M688.031,314.2l7.291-4.214-7.291-4.206-7.291,4.206Z" transform="translate(-518.672 -297.117)" fill="none" stroke="#fff" stroke-linecap="round" stroke-linejoin="round" stroke-width="1.58"/><path d="M656.28,312.5l-7.291-4.214v8.9l7.291,4.214Zm0,0,7.292-4.214v8.9L656.28,321.4ZM494.211,303.84l7.292-4.206-7.292-4.214-7.292,4.214Z" transform="translate(-486.92 -295.42)" fill="none" stroke="#fff" stroke-linecap="round" stroke-linejoin="round" stroke-width="1.58"/><path d="M494.211,304.666l-7.292-4.206v8.9l7.292,4.206Zm0,0,7.292-4.206v8.9l-7.292,4.206Z" transform="translate(-486.92 -296.246)" fill="none" stroke="#fff" stroke-linecap="round" stroke-linejoin="round" stroke-width="1.58"/></g><path d="M603.821,457.649l55.38-83.735,9.181-120.744L586.37,301.142" transform="translate(-3819.02 -85.453)" fill="none" stroke="#fff" stroke-linecap="round" stroke-linejoin="round" stroke-width="3"/><path d="M575.173,310.54,648,383.313,518.02,402.737l74.6,64.311" transform="translate(-3807.823 -94.852)" fill="none" stroke="#fff" stroke-linecap="round" stroke-linejoin="round" stroke-width="3"/><path d="M581.76,305.217l23.53-13.58L581.76,278.05l-23.53,13.588Z" transform="translate(-3814.41 -89.529)" fill="none" stroke="#fff" stroke-linecap="round" stroke-linejoin="round" stroke-width="4"/><path d="M581.76,307.88,558.23,294.3v28.706l23.53,13.58V307.879Zm0,0,23.53-13.58v28.706l-23.53,13.58V307.879Z" transform="translate(-3814.41 -92.191)" fill="none" stroke="#fff" stroke-linecap="round" stroke-linejoin="round" stroke-width="4"/><path d="M680.407,249.29l14.717-8.5-14.717-8.5-14.717,8.5Z" transform="translate(-3832.014 -82.033)" fill="none" stroke="#fff" stroke-linecap="round" stroke-linejoin="round" stroke-width="3"/><path d="M679.062,250.956l-14.717-8.5v17.953l14.717,8.5Zm0,0,14.717-8.5v17.953l-14.717,8.5Zm-8.211,121.2,13.37-7.718-13.37-7.718-13.371,7.718Z" transform="translate(-3830.669 -83.699)" fill="none" stroke="#fff" stroke-linecap="round" stroke-linejoin="round" stroke-width="3"/><path d="M644.338,396.058l-13.371-7.718v16.314l13.371,7.718Zm0,0,13.37-7.718v16.314l-13.37,7.718ZM514.354,415.482l18.714-10.8-18.714-10.8-18.714,10.8Z" transform="translate(-3804.156 -107.597)" fill="none" stroke="#fff" stroke-linecap="round" stroke-linejoin="round" stroke-width="3"/><path d="M514.354,418.683l-18.714-10.8v22.836l18.714,10.8Zm0,0,18.714-10.8v22.836l-18.714,10.8Zm74.6,64.311,12.3-7.1-12.3-7.108-12.309,7.108Z" transform="translate(-3804.156 -110.798)" fill="none" stroke="#fff" stroke-linecap="round" stroke-linejoin="round" stroke-width="3"/><path d="M604.829,496.319l-12.309-7.1v15.009l12.309,7.1V496.319Zm0,0,12.3-7.1v15.009l-12.3,7.1V496.319Z" transform="translate(-3820.027 -124.123)" fill="none" stroke="#fff" stroke-linecap="round" stroke-linejoin="round" stroke-width="3"/><g transform="translate(-3307.646 19.989)" opacity="0.6"><g transform="translate(36.023 26.34)" opacity="0.5"><path d="M555.957,126.7l16.2-9.348L555.957,108l-16.2,9.348Z" transform="translate(-539.76 -108)" fill="none" stroke="#fff" stroke-linecap="round" stroke-linejoin="round" stroke-width="2.63"/><path d="M555.957,128.528l-16.2-9.348v19.759l16.2,9.348V128.528Zm0,0,16.2-9.348v19.759l-16.2,9.348V128.528Z" transform="translate(-539.76 -109.832)" fill="none" stroke="#fff" stroke-linecap="round" stroke-linejoin="round" stroke-width="2.63"/></g><g transform="translate(97.866)" opacity="0.5"><path d="M623.854,88.2l10.126-5.845L623.854,76.5,613.72,82.353Z" transform="translate(-613.72 -76.5)" fill="none" stroke="#fff" stroke-linecap="round" stroke-linejoin="round" stroke-width="2.63"/><path d="M623.854,89.345,613.72,83.5V95.859l10.134,5.845Zm0,0L633.981,83.5V95.859L623.854,101.7Z" transform="translate(-613.72 -77.647)" fill="none" stroke="#fff" stroke-linecap="round" stroke-linejoin="round" stroke-width="2.63"/></g><path d="M617.278,188.178l9.206-5.31-9.206-5.318-9.2,5.318Z" transform="translate(-514.93 -93.054)" fill="none" stroke="#fff" stroke-linecap="round" stroke-linejoin="round" stroke-width="2.63"/><path d="M599.028,189.22l-9.2-5.31v11.23l9.2,5.31Zm0,0,9.206-5.31v11.23l-9.206,5.31ZM509.557,202.59l12.886-7.434-12.886-7.442-12.877,7.442Z" transform="translate(-496.68 -94.096)" fill="none" stroke="#fff" stroke-linecap="round" stroke-linejoin="round" stroke-width="2.63"/><path d="M509.557,204.794,496.68,197.36v15.712l12.877,7.442Zm0,0,12.886-7.434v15.712l-12.886,7.442Zm46.951,26.649,8.462-4.892-8.462-4.883-8.47,4.883Z" transform="translate(-496.68 -96.299)" fill="none" stroke="#fff" stroke-linecap="round" stroke-linejoin="round" stroke-width="2.63"/><path d="M566.57,237.162l-8.47-4.892v10.335l8.47,4.892Zm0,0,8.462-4.892v10.335L566.57,247.5Z" transform="translate(-506.742 -102.018)" fill="none" stroke="#fff" stroke-linecap="round" stroke-linejoin="round" stroke-width="2.63"/></g><path d="M624.846,522.414a32.436,32.436,0,0,0,16.23-4.34l118.278-68.282a8.855,8.855,0,0,0,4.465-7.751V53.125a1.1,1.1,0,1,0-2.2,0V442.04a6.69,6.69,0,0,1-3.345,5.853l-118.3,68.274a30.345,30.345,0,0,1-30.253,0L491.442,447.885a6.69,6.69,0,0,1-3.345-5.853V53.125a1.1,1.1,0,1,0-2.207,0V442.049a8.855,8.855,0,0,0,4.474,7.743l118.253,68.282A32.434,32.434,0,0,0,624.846,522.414Z" transform="translate(-3846.199 -96)" fill="url(#c)"/><path d="M571.695,723.465v-35.2a34.415,34.415,0,0,0-17.2-29.8l-84.458-48.869a8.6,8.6,0,0,0-12.9,7.45v17.326" transform="translate(-3841.488 -187.169)" fill="none" stroke="#fff" stroke-linecap="round" stroke-linejoin="round" stroke-width="4"/><g transform="translate(-3140.874 466.6)"><path d="M784.71,610.61l4.44,2.575-8.914,5.151,5.979,3.47,7.584-4.382L798.24,620l-7.593,4.382,6.188,3.6,8.914-5.143,4.423,2.576-12.66,7.308-25.462-14.8Zm-17.058,9.85,4.44,2.575-5.025,2.9,21.021,12.225-3.754,2.166L763.312,628.1,758.3,631l-4.44-2.575,13.8-7.969Zm-18.2,10.5,25.462,14.8-3.353,1.932-23.229-4.683,15.62,9.081-3.754,2.166L734.74,639.467l3.353-1.94,23.2,4.666L745.7,633.137l3.754-2.174Z" transform="translate(-702.452 -610.61)" fill="#fff"/><path d="M785.044,706.856c.978.543,2.007,1.137,3.1,1.773s2.124,1.238,3.052,1.806a25.908,25.908,0,0,1,2.509,1.672,10.87,10.87,0,0,1,1.781,1.672,4.748,4.748,0,0,1,.937,1.839,3.7,3.7,0,0,1-.209,2.509,5.084,5.084,0,0,1-2.182,2.09,10.4,10.4,0,0,1-3.671,1.3,18.2,18.2,0,0,1-4.365.117,17.6,17.6,0,0,1-3.177-.544,19.565,19.565,0,0,1-2.893-1.045c-.945-.426-1.907-.9-2.876-1.455s-2-1.129-3.094-1.764-2.116-1.238-3.052-1.806a26.289,26.289,0,0,1-2.509-1.672,10.327,10.327,0,0,1-1.8-1.672,4.49,4.49,0,0,1-.928-1.848,3.654,3.654,0,0,1,.217-2.509,5.149,5.149,0,0,1,2.2-2.1,10.419,10.419,0,0,1,3.621-1.263,18.567,18.567,0,0,1,4.357-.109,17.5,17.5,0,0,1,3.169.544,21.546,21.546,0,0,1,2.91,1.037A31.947,31.947,0,0,1,785.044,706.856Zm2.308,5.719c-.769-.477-1.764-1.07-2.977-1.781s-2.241-1.28-3.069-1.731A18.5,18.5,0,0,0,779.174,708a10.05,10.05,0,0,0-1.564-.577,10.994,10.994,0,0,0-1.338-.242,7.914,7.914,0,0,0-1.99,0,4.635,4.635,0,0,0-1.764.585,2.267,2.267,0,0,0-1.037,1.029,1.6,1.6,0,0,0,0,1.162,2.762,2.762,0,0,0,.435.769,6.143,6.143,0,0,0,.987.9c.46.343,1.062.753,1.831,1.238s1.764,1.07,2.985,1.781,2.241,1.279,3.06,1.731a17.891,17.891,0,0,0,2.141,1.062,10.559,10.559,0,0,0,1.547.577,9.394,9.394,0,0,0,1.321.251,7.733,7.733,0,0,0,2.015,0,5.015,5.015,0,0,0,1.781-.594,2.266,2.266,0,0,0,1.012-1.02,1.673,1.673,0,0,0,0-1.162,2.805,2.805,0,0,0-.418-.769,5.26,5.26,0,0,0-.97-.911c-.452-.343-1.062-.761-1.84-1.238m-36.516,2.592a12.65,12.65,0,0,1,6.756-1.505,21.811,21.811,0,0,1,8.362,2.09l-3.8,2.208a12.153,12.153,0,0,0-3.713-.911,5.477,5.477,0,0,0-3.144.677c-1.037.6-1.4,1.321-1.07,2.157a2.585,2.585,0,0,0,.418.836,5.016,5.016,0,0,0,.97.895c.452.334,1.062.736,1.831,1.221s1.781,1.079,3.019,1.8,2.274,1.3,3.094,1.756a19.868,19.868,0,0,0,2.107,1.062,9.036,9.036,0,0,0,1.539.56,9.183,9.183,0,0,0,1.4.251,5.727,5.727,0,0,0,3.721-.61c.92-.535,1.313-1.146,1.179-1.823a4.022,4.022,0,0,0-1.555-2.149l3.813-2.208a12.023,12.023,0,0,1,2.567,2.509,4.875,4.875,0,0,1,.987,2.35,3.253,3.253,0,0,1-.552,2.124,5.854,5.854,0,0,1-2.032,1.8,13.449,13.449,0,0,1-7.969,1.371,17.361,17.361,0,0,1-5.393-1.321,66.423,66.423,0,0,1-6.69-3.5,56.276,56.276,0,0,1-6-3.863,5.852,5.852,0,0,1-2.258-3.127C748,717.885,748.8,716.355,750.853,715.168Z" transform="translate(-748.317 -669.387)" fill="#fff"/></g><path d="M833.424,584.42l4.44,2.576-5.025,2.9,21.03,12.217-3.763,2.166-21.022-12.217-5.025,2.9-4.432-2.575Zm-18.2,10.5,25.462,14.8-3.345,1.932-23.237-4.683,15.62,9.081-3.746,2.166-25.462-14.8,3.345-1.932,23.2,4.666-15.595-9.064Z" transform="translate(-3854.102 -139.719)" fill="#fff"/></g></g></svg>